<svg width="117" height="32" viewBox="0 0 117 32" fill="none" xmlns="http://www.w3.org/2000/svg">
<path d="M40.6095 5.79702H40.2197V2.30176H40.6095V3.92707L41.1858 3.90635L42.0814 2.30176H42.525L41.5258 4.05975L42.5831 5.79702H42.1228L41.1941 4.25048L40.6136 4.27122V5.79702H40.6095Z" fill="#F1F1F2"/>
<path d="M43.4746 5.79702V2.30176H45.6016V2.64589H43.8644V3.85244H45.299V4.19244H43.8644V5.45289H45.6016V5.79702H43.4746Z" fill="#F1F1F2"/>
<path d="M46.2815 2.65004V2.30176H48.8065V2.65004H47.741V5.79702H47.3554V2.65004H46.2815Z" fill="#F1F1F2"/>
<path d="M49.6816 5.79702V2.30176H50.0714V5.79702H49.6816Z" fill="#F1F1F2"/>
<path d="M51.6922 5.79702H51.3025V2.30176H51.6922V3.92707L52.2686 3.90635L53.1642 2.30176H53.6078L52.6085 4.05975L53.6658 5.79702H53.2056L52.2769 4.25048L51.6964 4.27122V5.79702H51.6922Z" fill="#F1F1F2"/>
<path d="M54.2461 5.79702L55.2039 2.30176H56.0539L57.0116 5.79702H56.626L56.3731 4.8973H54.8763L54.6234 5.79702H54.2461ZM55.4983 2.63345L54.9675 4.54901H56.2902L55.7595 2.63345H55.4983Z" fill="#F1F1F2"/>
<path d="M60.3948 2.58778C59.889 2.58778 59.6361 2.77851 59.6361 3.15996C59.6361 3.37142 59.6941 3.51654 59.8102 3.59531C59.9263 3.67409 60.1627 3.75287 60.5192 3.83165C60.8758 3.91043 61.1246 4.01408 61.2738 4.13847C61.4231 4.26286 61.4977 4.47431 61.4977 4.7604C61.4977 5.4777 61.1246 5.83427 60.3824 5.83427C60.1378 5.83427 59.8268 5.80525 59.4578 5.74721L59.2754 5.72233L59.3168 5.39893C59.7729 5.46112 60.1212 5.49014 60.3617 5.49014C60.8592 5.49014 61.108 5.25795 61.108 4.78943C61.108 4.60285 61.0541 4.46602 60.9421 4.38309C60.8343 4.30017 60.627 4.22969 60.3285 4.17165C59.9346 4.08872 59.6568 3.98092 59.491 3.84409C59.3251 3.71141 59.2422 3.48751 59.2422 3.17654C59.2422 2.55046 59.6195 2.23535 60.37 2.23535C60.6146 2.23535 60.909 2.26023 61.2531 2.30998L61.4231 2.33486L61.3858 2.66241C60.9256 2.6168 60.5939 2.58778 60.3948 2.58778Z" fill="#F1F1F2"/>
<path d="M62.5469 5.79702V2.30176H64.6739V2.64589H62.9366V3.85244H64.3712V4.19244H62.9366V5.45289H64.6739V5.79702H62.5469Z" fill="#F1F1F2"/>
<path d="M65.7188 5.79702V2.30176H66.4195L67.4104 5.25802L68.4014 2.30176H69.1021V5.79702H68.7123V2.71638H68.6418L67.626 5.67264H67.1907L66.1748 2.71638H66.1043V5.79702H65.7188Z" fill="#F1F1F2"/>
<path d="M70.7032 4.74779C70.7032 5.25363 70.9769 5.50654 71.52 5.50654C71.802 5.50654 72.0176 5.4485 72.1586 5.32825C72.3037 5.20801 72.3742 5.01729 72.3742 4.75194V2.30566H72.7597V4.7395C72.7597 5.12924 72.6561 5.41118 72.4488 5.58947C72.2415 5.76361 71.9347 5.85068 71.5325 5.85068C71.1303 5.85068 70.8235 5.76361 70.6203 5.58947C70.4171 5.41533 70.3135 5.13339 70.3135 4.7395V2.30566H70.7032V4.74779Z" fill="#F1F1F2"/>
<path d="M73.6299 5.79702L74.5877 2.30176H75.4376L76.3954 5.79702H76.0098L75.7569 4.8973H74.2601L74.0072 5.79702H73.6299ZM74.882 2.63345L74.3513 4.54901H75.674L75.1433 2.63345H74.882Z" fill="#F1F1F2"/>
<path d="M78.4766 6.16165V5.81337C78.717 5.81337 78.8746 5.78435 78.9451 5.7263C79.0156 5.66825 79.0487 5.51484 79.0487 5.26606V2.30566H79.4343L79.4385 5.31997C79.4385 5.60191 79.3929 5.80922 79.2975 5.9419C79.2187 6.05385 79.0653 6.12019 78.8373 6.14921C78.7419 6.15336 78.6258 6.16165 78.4766 6.16165Z" fill="#F1F1F2"/>
<path d="M80.3469 5.79702L81.3047 2.30176H82.1547L83.1125 5.79702H82.7269L82.4739 4.8973H80.9771L80.7242 5.79702H80.3469ZM81.5991 2.63345L81.0684 4.54901H82.391L81.8603 2.63345H81.5991Z" fill="#F1F1F2"/>
<path d="M85.2893 5.79702H84.0413V2.30176H85.2893C85.8573 2.30176 86.2346 2.52566 86.4212 2.97759C86.529 3.23881 86.5829 3.57879 86.5829 3.99756C86.5829 4.87656 86.3631 5.43216 85.9278 5.6602C85.7495 5.75142 85.538 5.79702 85.2893 5.79702ZM86.1849 3.99756C86.1849 3.32587 86.0356 2.91126 85.7371 2.74541C85.6168 2.67907 85.4676 2.64589 85.2934 2.64589H84.4351V5.45289H85.2934C85.8863 5.45289 86.1849 4.96778 86.1849 3.99756Z" fill="#F1F1F2"/>
<path d="M87.6777 5.79702V2.30176H88.0675V5.79702H87.6777Z" fill="#F1F1F2"/>
<path d="M90.7871 5.79702V2.30176H91.4878L92.4788 5.25802L93.4697 2.30176H94.1704V5.79702H93.7807V2.71638H93.7102L92.6944 5.67264H92.259L91.2432 2.71638H91.1727V5.79702H90.7871Z" fill="#F1F1F2"/>
<path d="M95.7706 4.74779C95.7706 5.25363 96.0443 5.50654 96.5874 5.50654C96.8694 5.50654 97.085 5.4485 97.2259 5.32825C97.3711 5.20801 97.4415 5.01729 97.4415 4.75194V2.30566H97.8271V4.7395C97.8271 5.12924 97.7235 5.41118 97.5162 5.58947C97.3089 5.76361 97.002 5.85068 96.5999 5.85068C96.1977 5.85068 95.8909 5.76361 95.6877 5.58947C95.4845 5.41533 95.3809 5.13339 95.3809 4.7395V2.30566H95.7706V4.74779Z" fill="#F1F1F2"/>
<path d="M100.286 5.79702H99.0381V2.30176H100.286C100.854 2.30176 101.231 2.52566 101.418 2.97759C101.526 3.23881 101.58 3.57879 101.58 3.99756C101.58 4.87656 101.36 5.43216 100.925 5.6602C100.75 5.75142 100.535 5.79702 100.286 5.79702ZM101.182 3.99756C101.182 3.32587 101.032 2.91126 100.734 2.74541C100.614 2.67907 100.464 2.64589 100.29 2.64589H99.432V5.45289H100.29C100.883 5.45289 101.182 4.96778 101.182 3.99756Z" fill="#F1F1F2"/>
<path d="M102.297 5.79702L103.255 2.30176H104.105L105.063 5.79702H104.677L104.424 4.8973H102.927L102.674 5.79702H102.297ZM103.549 2.63345L103.019 4.54901H104.341L103.81 2.63345H103.549Z" fill="#F1F1F2"/>
<path d="M108.16 5.79702V4.21731H106.381V5.79702H105.991V2.30176H106.381V3.86903H108.16V2.30176H108.545V5.79702H108.16Z" fill="#F1F1F2"/>
<path d="M106.323 27.1626L105.734 30.5873L109.453 30.5708L109.565 29.9032L106.597 29.9156L106.961 27.8135L109.93 27.8011L110.042 27.1294L107.762 27.1377L106.323 27.1626Z" fill="#F1F1F2"/>
<path d="M106.704 24.9238L106.592 25.5955L107.343 25.5913L108.097 25.5872L110.311 25.5789L110.423 24.9072L106.704 24.9238Z" fill="#F1F1F2"/>
<path d="M83.2948 30.6828L82.3204 30.687L80.5209 28.1743L79.8576 28.7755L79.5259 30.6952L78.7754 30.6994L79.7498 25.0356L80.5002 25.0315L79.9902 27.9878L83.2367 25.0232L84.1448 25.019L81.1678 27.6934L83.2948 30.6828Z" fill="#F1F1F2"/>
<path d="M90.0699 29.041C90.0326 29.2608 89.9455 29.4805 89.8045 29.6961C89.6635 29.9117 89.4894 30.0942 89.2821 30.2476C89.0499 30.4093 88.7928 30.5378 88.5109 30.629C88.2248 30.7202 87.8931 30.77 87.5158 30.77C87.1095 30.77 86.7488 30.7368 86.4378 30.6622C86.1268 30.5876 85.8158 30.4756 85.5049 30.3263L85.6666 29.3851H85.7205C85.9651 29.6215 86.2636 29.8039 86.6161 29.9325C86.9685 30.061 87.3085 30.1232 87.636 30.1232C88.1004 30.1232 88.4777 30.032 88.768 29.8578C89.0582 29.6837 89.2282 29.4473 89.2779 29.1571C89.3194 28.9042 89.2904 28.7217 89.1909 28.6015C89.0872 28.4813 88.9172 28.3901 88.6809 28.3279C88.4984 28.2781 88.3036 28.2366 88.088 28.2035C87.8724 28.1703 87.6443 28.133 87.408 28.0791C86.927 27.9754 86.587 27.793 86.388 27.5401C86.189 27.283 86.1268 26.9472 86.1973 26.5367C86.2802 26.064 86.5456 25.6743 86.9975 25.3675C87.4495 25.0648 87.9802 24.9072 88.5938 24.9072C88.9919 24.9072 89.3484 24.9404 89.6677 25.015C89.9869 25.0896 90.2606 25.1809 90.4969 25.2928L90.3435 26.1842H90.2896C90.1072 26.0018 89.8501 25.8526 89.5184 25.7323C89.1909 25.6121 88.8426 25.554 88.4736 25.5582C88.0714 25.5582 87.7356 25.6453 87.4619 25.8153C87.1883 25.9852 87.0307 26.2008 86.9851 26.4621C86.9436 26.6984 86.9726 26.8808 87.0722 27.0176C87.1717 27.1503 87.3665 27.254 87.6609 27.3245C87.8185 27.3576 88.0382 27.3991 88.3285 27.4489C88.6187 27.4986 88.8633 27.5484 89.0582 27.6023C89.4604 27.7101 89.7465 27.8801 89.9206 28.104C90.0865 28.3196 90.1362 28.6347 90.0699 29.041Z" fill="#F1F1F2"/>
<path d="M96.9197 26.6777C96.8782 26.9306 96.7912 27.1628 96.6709 27.3743C96.5465 27.5899 96.3931 27.7765 96.2107 27.934C95.9826 28.1289 95.7256 28.2782 95.4436 28.3777C95.1617 28.4772 94.8175 28.527 94.4154 28.527L93.6649 28.5311L93.3042 30.6415L92.5537 30.6457L93.5281 24.9819L95.058 24.9736C95.398 24.9736 95.68 24.9985 95.9039 25.0566C96.1278 25.1146 96.3226 25.2017 96.4843 25.3219C96.6751 25.467 96.8077 25.6453 96.8907 25.8609C96.9653 26.0765 96.9777 26.346 96.9197 26.6777ZM96.136 26.6985C96.1692 26.5036 96.1651 26.3336 96.1195 26.1885C96.078 26.0434 95.9909 25.9273 95.8707 25.8361C95.7629 25.7573 95.6343 25.7034 95.4851 25.6702C95.3358 25.637 95.1409 25.6204 94.9046 25.6204L94.1624 25.6246L93.7727 27.8884L94.4071 27.8843C94.7097 27.8843 94.9627 27.8553 95.1617 27.8014C95.3607 27.7475 95.5307 27.6604 95.6675 27.5401C95.8085 27.4199 95.9122 27.2914 95.9868 27.1546C96.0573 27.0177 96.107 26.8684 96.136 26.6985Z" fill="#F1F1F2"/>
<path d="M103.454 30.5956L102.479 30.5998L100.979 28.3567L99.9212 28.3608L99.5356 30.6122L98.7852 30.6164L99.7595 24.9526L101.339 24.9443C101.679 24.9443 101.961 24.9651 102.181 25.0065C102.401 25.048 102.591 25.1268 102.753 25.2429C102.936 25.3714 103.068 25.5331 103.147 25.728C103.23 25.9229 103.242 26.1716 103.193 26.4743C103.122 26.8848 102.96 27.2248 102.707 27.4984C102.455 27.7762 102.139 27.9835 101.754 28.1245L103.454 30.5956ZM102.397 26.5365C102.426 26.3748 102.421 26.2297 102.384 26.1053C102.347 25.9809 102.272 25.8731 102.156 25.7902C102.061 25.7156 101.94 25.6658 101.795 25.6367C101.65 25.6077 101.476 25.5953 101.277 25.5953L100.394 25.5994L100.025 27.7389L100.784 27.7347C101.02 27.7347 101.231 27.7099 101.418 27.6684C101.6 27.6269 101.766 27.5482 101.907 27.4321C102.04 27.3243 102.144 27.204 102.222 27.0631C102.301 26.9262 102.359 26.748 102.397 26.5365Z" fill="#F1F1F2"/>
<path d="M116.573 28.9248C116.535 29.1446 116.448 29.3643 116.307 29.5799C116.166 29.7955 115.992 29.9779 115.785 30.1314C115.553 30.2931 115.296 30.4216 115.014 30.5128C114.728 30.604 114.396 30.6538 114.019 30.6538C113.612 30.6538 113.252 30.6206 112.941 30.546C112.63 30.4713 112.319 30.3594 112.008 30.2101L112.169 29.2689H112.223C112.468 29.5053 112.767 29.6877 113.119 29.8162C113.471 29.9448 113.811 30.007 114.139 30.007C114.603 30.007 114.981 29.9158 115.271 29.7416C115.561 29.5675 115.731 29.3311 115.781 29.0409C115.822 28.788 115.793 28.6056 115.694 28.4853C115.59 28.3651 115.42 28.2738 115.184 28.2117C115.001 28.1619 114.807 28.1204 114.591 28.0873C114.375 28.0541 114.147 28.0168 113.911 27.9629C113.43 27.8592 113.09 27.6768 112.891 27.4239C112.692 27.1709 112.63 26.831 112.7 26.4205C112.783 25.9478 113.049 25.5581 113.5 25.2512C113.952 24.9486 114.483 24.791 115.097 24.791C115.495 24.791 115.851 24.8242 116.171 24.8988C116.49 24.9735 116.764 25.0647 117 25.1766L116.846 26.0681H116.793C116.61 25.8856 116.353 25.7364 116.021 25.6161C115.694 25.4959 115.346 25.4378 114.977 25.442C114.574 25.442 114.238 25.529 113.965 25.699C113.691 25.869 113.534 26.0846 113.488 26.3459C113.447 26.5822 113.476 26.7646 113.575 26.9015C113.675 27.0341 113.869 27.1378 114.164 27.2083C114.321 27.2414 114.541 27.2829 114.831 27.3327C115.122 27.3824 115.366 27.4322 115.561 27.4861C115.963 27.5939 116.249 27.7639 116.424 27.9878C116.589 28.2034 116.643 28.5185 116.573 28.9248Z" fill="#F1F1F2"/>
<path d="M72.8837 27.3034L72.2949 30.7324L76.0141 30.7158L76.1302 30.0441L73.1615 30.0607L73.5222 27.9544L76.4909 27.942L76.607 27.2744L74.3266 27.2827L72.8837 27.3034Z" fill="#F1F1F2"/>
<path d="M73.2692 25.0688L73.1531 25.7405L73.9035 25.7364L74.6582 25.7322L76.8722 25.7239L76.9883 25.0522L73.2692 25.0688Z" fill="#F1F1F2"/>
<path d="M38.3084 18.2031C38.5986 18.2943 38.9013 18.3689 39.2164 18.4187C39.4776 18.485 39.7803 18.5348 40.1162 18.5762C40.452 18.6135 40.792 18.6343 41.132 18.6301C41.7373 18.626 42.04 18.3979 42.0359 17.946C42.0359 17.7718 41.9405 17.5977 41.7581 17.4153C41.5715 17.237 41.3393 17.038 41.0573 16.8182C40.7754 16.5985 40.4686 16.358 40.1452 16.0926C39.8218 15.8273 39.5191 15.5204 39.233 15.1763C38.9469 14.8322 38.7147 14.4424 38.5281 14.0071C38.3416 13.5759 38.2462 13.0783 38.2462 12.5186C38.2421 11.8925 38.354 11.3369 38.5738 10.8559C38.7935 10.375 39.1003 9.97279 39.4942 9.64939C39.8881 9.32598 40.3483 9.08136 40.8832 8.91136C41.4139 8.74137 41.982 8.6543 42.5873 8.6543C42.9024 8.6543 43.2175 8.66673 43.5326 8.6999C43.8478 8.73307 44.1297 8.76209 44.3826 8.78697C44.6729 8.82428 44.9548 8.86574 45.2326 8.90306L45.2492 12.6471C45.1455 12.6347 45.0253 12.6222 44.8926 12.6098C44.789 12.5974 44.6687 12.5849 44.536 12.5725C44.4033 12.56 44.2665 12.5517 44.1214 12.5559C44.0426 12.5559 43.9431 12.56 43.827 12.5683C43.7068 12.5766 43.599 12.5932 43.4912 12.6181C43.3875 12.6471 43.2963 12.6927 43.2175 12.7591C43.1387 12.8254 43.1014 12.9208 43.1014 13.041C43.1014 13.1488 43.1926 13.2815 43.3709 13.439C43.5492 13.5966 43.7648 13.7832 44.0219 13.9988C44.279 14.2102 44.5609 14.4549 44.8719 14.7368C45.1828 15.0146 45.4648 15.3339 45.726 15.6946C45.9831 16.0553 46.2028 16.4616 46.3811 16.9136C46.5594 17.3655 46.6506 17.8755 46.6548 18.4352C46.6589 19.024 46.5677 19.5755 46.3853 20.0896C46.2028 20.6037 45.9209 21.0515 45.5353 21.433C45.1497 21.8144 44.6521 22.1171 44.0509 22.341C43.4456 22.5649 42.7324 22.6768 41.9032 22.681C41.4015 22.6851 40.9413 22.6602 40.5142 22.6146C40.0871 22.569 39.7098 22.5151 39.3781 22.4488C38.9967 22.3824 38.6484 22.3037 38.3333 22.2125L38.3084 18.2031Z" fill="#F1F1F2"/>
<path d="M47.9902 8.62914L52.4474 8.6084L52.5096 22.6683L48.0524 22.689L47.9902 8.62914Z" fill="#F1F1F2"/>
<path d="M54.0516 15.6325C54.0474 14.5628 54.2257 13.6009 54.5906 12.7384C54.9555 11.876 55.453 11.138 56.0791 10.5202C56.7093 9.90243 57.4432 9.42975 58.2807 9.09805C59.1224 8.76636 60.0139 8.60051 60.9592 8.59636C61.7097 8.59222 62.3772 8.66271 62.9618 8.80783C63.5464 8.95294 64.0523 9.11879 64.4711 9.30123C64.9603 9.51269 65.3791 9.74487 65.7357 9.99779L63.6791 13.7128C63.4677 13.5553 63.2355 13.4018 62.9867 13.2567C62.7628 13.1531 62.4974 13.0494 62.1865 12.9499C61.8755 12.8504 61.5272 12.8048 61.1292 12.8048C60.7229 12.8048 60.3456 12.8836 60.0056 13.0287C59.6656 13.1779 59.3671 13.377 59.11 13.634C58.8529 13.8869 58.6539 14.1855 58.5129 14.5296C58.3678 14.8696 58.2973 15.2345 58.3015 15.6201C58.3056 16.0057 58.3802 16.3705 58.5337 16.7105C58.6871 17.0505 58.8944 17.3449 59.1597 17.5978C59.4251 17.8507 59.7319 18.0498 60.0885 18.1949C60.4451 18.34 60.8307 18.4105 61.2536 18.4105C61.6723 18.4105 62.0497 18.3524 62.3772 18.2446C62.7048 18.1368 62.9826 18.0166 63.2023 17.8798C63.4635 17.7305 63.6957 17.5564 63.8906 17.3573L65.9761 21.0516C65.6237 21.346 65.2008 21.6072 64.7157 21.8394C64.2969 22.026 63.7911 22.2043 63.1982 22.366C62.6094 22.5277 61.9294 22.6106 61.1665 22.6148C60.1424 22.6189 59.1929 22.4531 58.3263 22.1172C57.4556 21.7814 56.7052 21.3087 56.0708 20.6951C55.4364 20.0856 54.9389 19.3475 54.5823 18.4893C54.2382 17.6269 54.0557 16.6774 54.0516 15.6325Z" fill="#F1F1F2"/>
<path d="M66.9219 8.61715L74.6712 8.58398L74.6878 12.2451L71.1386 12.2617L71.1469 13.8082L74.638 13.7916L74.6546 17.262L71.1635 17.2786L71.1718 18.8874L74.8577 18.8708L74.8743 22.5319L66.9841 22.5651L66.9219 8.61715Z" fill="#F1F1F2"/>
<path d="M87.3661 13.8327C87.3703 14.7988 87.2086 15.6239 86.881 16.3038C86.5535 16.9838 86.1015 17.5353 85.5335 17.9582C84.9613 18.3811 84.2938 18.6921 83.5309 18.8911C82.768 19.0901 81.9429 19.1938 81.0597 19.1938L81.0722 22.5356L76.6647 22.5563L76.6025 8.54625L81.01 8.52552C81.8931 8.52137 82.7182 8.61673 83.4853 8.80746C84.2523 8.99819 84.9199 9.305 85.4962 9.72377C86.0684 10.1425 86.5245 10.6898 86.8562 11.3657C87.192 12.0457 87.362 12.8666 87.3661 13.8327ZM81.0431 15.4165H81.2297C81.8102 15.4124 82.2248 15.2756 82.4777 15.0019C82.7307 14.7283 82.8592 14.3468 82.855 13.8576C82.8509 13.3683 82.7224 12.9869 82.4653 12.7132C82.2082 12.4395 81.7936 12.3069 81.2131 12.311H81.0266L81.0431 15.4165Z" fill="#F1F1F2"/>
<path d="M101.842 12.0707L99.416 12.0832L99.3994 8.39303L108.587 8.35156L108.604 12.0417L106.178 12.0541L106.224 22.4321L101.887 22.4529L101.842 12.0707Z" fill="#F1F1F2"/>
<path d="M93.4491 7.95752L90.9241 12.282L95.0081 10.4204L93.4491 7.95752Z" fill="#F1F1F2"/>
<path d="M96.8075 18.4101L90.8369 21.7602L101.36 21.7146L96.0943 12.7588L94.1497 14.5914L95.4848 16.4987L96.8075 18.4101Z" fill="#F1F1F2"/>
<path d="M90.07 14.376L86.1145 21.7811L88.4364 21.7728L92.1224 17.2286L90.07 14.376Z" fill="#F1F1F2"/>
<path opacity="0.2" d="M94.1996 14.5874L91.8984 17.5851L94.751 15.3793L94.1996 14.5874Z" fill="black"/>
<path d="M11.0784 31.9414C16.9016 31.9162 21.6199 31.3594 21.617 30.6976C21.6142 30.0358 16.8912 29.5197 11.068 29.5448C5.24481 29.57 0.526484 30.1268 0.529339 30.7886C0.532194 31.4504 5.25515 31.9665 11.0784 31.9414Z" fill="#C9C8C8"/>
<path d="M23.1833 29.5176C22.8724 30.3675 21.9312 30.8029 21.0853 30.4919L1.21662 23.1987C0.366641 22.8878 -0.0687152 21.9465 0.242252 21.1007L7.53546 1.23199C7.84643 0.382011 8.78762 -0.0533328 9.63345 0.257634L29.5022 7.55085C30.3522 7.86181 30.7875 8.80301 30.4765 9.64884L23.1833 29.5176Z" fill="#941E27"/>
<path d="M22.7268 28.6968C22.4324 29.4929 21.5492 29.9034 20.7531 29.6132L2.03293 22.7429C1.23686 22.4485 0.826378 21.5653 1.11661 20.7693L7.98691 2.04904C8.28129 1.25297 9.16444 0.842492 9.96052 1.13273L28.6807 8.00303C29.4768 8.29741 29.8873 9.18056 29.597 9.97664L22.7268 28.6968Z" fill="white" stroke="#B3B2B3" stroke-width="0.414623" stroke-miterlimit="10"/>
<path d="M21.2968 30.7284C20.99 30.7284 20.6914 30.6745 20.4012 30.5709L1.68097 23.7006C1.0383 23.4642 0.528318 22.9916 0.238082 22.3697C-0.0480074 21.7477 -0.0770298 21.0511 0.155159 20.4085L7.02546 1.69241C7.39448 0.693172 8.3564 0.0173298 9.41783 0.0131836C9.72465 0.0131836 10.0232 0.0670866 10.3134 0.170742L29.0336 7.04104C29.6763 7.27738 30.1863 7.75005 30.4765 8.36784C30.7626 8.98978 30.7916 9.68633 30.5594 10.329L23.6891 29.0492C23.3243 30.0485 22.3582 30.7243 21.2968 30.7284ZM9.43442 2.06142C9.25613 2.06142 9.03638 2.16923 8.95345 2.40141L2.08315 21.1216C2.01681 21.2958 2.06656 21.445 2.09973 21.5155C2.1329 21.586 2.21583 21.7187 2.38998 21.785L21.106 28.6553C21.3341 28.7383 21.6534 28.6636 21.7694 28.3485L28.6397 9.63244C28.7061 9.45829 28.6563 9.30903 28.6232 9.23854C28.59 9.16805 28.5071 9.03538 28.3329 8.97319L9.6127 2.10289C9.55466 2.06972 9.49247 2.06142 9.43442 2.06142Z" fill="#E5E5E4"/>
<path opacity="0.2" d="M0.838867 21.6566C0.884476 21.9717 1.10008 22.2495 1.42349 22.3656L21.3171 29.6671C21.7856 29.8371 22.2458 29.5925 22.4158 29.124L29.7754 9.06867C29.8583 8.84063 29.8708 8.61258 29.7837 8.40527L0.838867 21.6566Z" fill="black"/>
<path d="M25.6215 9.91846L12.196 11.0131L12.9382 13.6045L13.6846 16.2332L25.6215 9.91846Z" fill="#D42129"/>
<path d="M5.02734 20.8106L18.4321 19.7242L17.6941 17.1287L16.9477 14.5L5.02734 20.8106Z" fill="#961B27"/>
<path opacity="0.2" d="M13.6387 16.2497L17.2127 15.4371L16.9474 14.5L13.6387 16.2497Z" fill="black"/>
</svg>
